<?xml version="1.0" encoding="utf-8"?>
<!-- Generator: Adobe Illustrator 23.0.2, SVG Export Plug-In . SVG Version: 6.00 Build 0)  -->
<svg version="1.1" id="Capa_1" xmlns="http://www.w3.org/2000/svg" xmlns:xlink="http://www.w3.org/1999/xlink" x="0px" y="0px"
	 viewBox="0 0 90.2 90.2" style="enable-background:new 0 0 90.2 90.2;" xml:space="preserve">
<style type="text/css">
	.st0{fill:#FFFFFF;}
</style>
<g>
	<path class="st0" d="M0.2,50.9c0.4,0,0.8-0.1,1.2-0.1c6.4,0,12.8,0,19.2,0c1,0,1.4,0.2,1.7,1.2c3,10.1,12.1,16.9,22.7,16.9
		c10.4,0,19.5-6.8,22.6-16.9c0.2-0.8,0.5-1.2,1.4-1.2c6.6,0,13.3,0,19.9,0c0.3,0,0.5,0.1,0.8,0.1c-1.1,17.1-17.1,38.9-43.8,39.5
		C18.9,90.9,1.6,69.3,0.2,50.9z"/>
	<path class="st0" d="M90,40.2c-0.8,0-1.2,0-1.7,0c-6.3,0-12.6,0-18.8,0c-1.1,0-1.6-0.3-2-1.4c-3-10-12.2-16.7-22.7-16.7
		c-10.4,0-19.5,6.8-22.5,16.8c-0.3,1-0.7,1.3-1.8,1.3c-6.4-0.1-12.7,0-19.1,0c-0.4,0-0.8,0-1.5,0C1.8,27.3,7.7,16.8,18.3,9.3
		c15-10.5,31.1-11.8,47.4-3.6C79.8,12.7,87.5,24.6,90,40.2z"/>
	<path class="st0" d="M59.9,45.5c0,8.2-6.7,14.8-14.9,14.8c-8.3,0-14.9-6.7-14.9-14.8c0-8.1,6.7-14.7,14.9-14.7
		C53.2,30.7,59.8,37.3,59.9,45.5z"/>
</g>
</svg>
